<?xml version="1.0" encoding="UTF-8" standalone="no"?>
<svg
   version="1.1"
   id="svg833"
   width="512"
   height="512"
   viewBox="0 0 512 512"
   sodipodi:docname="HubblePFPv4.svg"
   inkscape:version="1.1 (c68e22c387, 2021-05-23)"
   inkscape:export-filename="D:\Artworks\stickers\HubblePFPv4.png"
   inkscape:export-xdpi="96"
   inkscape:export-ydpi="96"
   xmlns:inkscape="http://www.inkscape.org/namespaces/inkscape"
   xmlns:sodipodi="http://sodipodi.sourceforge.net/DTD/sodipodi-0.dtd"
   xmlns:xlink="http://www.w3.org/1999/xlink"
   xmlns="http://www.w3.org/2000/svg"
   xmlns:svg="http://www.w3.org/2000/svg"
   xmlns:rdf="http://www.w3.org/1999/02/22-rdf-syntax-ns#"
   xmlns:cc="http://creativecommons.org/ns#"
   xmlns:dc="http://purl.org/dc/elements/1.1/">
  <metadata
     id="metadata839">
    <rdf:RDF>
      <cc:Work
         rdf:about="">
        <dc:format>image/svg+xml</dc:format>
        <dc:type
           rdf:resource="http://purl.org/dc/dcmitype/StillImage" />
      </cc:Work>
    </rdf:RDF>
  </metadata>
  <defs
     id="defs837">
    <inkscape:path-effect
       center_point="865.16018,113.46162"
       end_point="865.16018,113.96557"
       start_point="865.16018,112.95767"
       effect="mirror_symmetry"
       id="path-effect871"
       is_visible="true"
       lpeversion="1"
       mode="vertical"
       discard_orig_path="false"
       fuse_paths="false"
       oposite_fuse="false"
       split_items="false" />
    <inkscape:path-effect
       effect="mirror_symmetry"
       start_point="865.13839,151.69701"
       end_point="865.13839,157.12557"
       center_point="865.13839,154.41129"
       id="path-effect867"
       is_visible="true"
       lpeversion="1"
       mode="vertical"
       discard_orig_path="false"
       fuse_paths="true"
       oposite_fuse="false"
       split_items="false"
       split_open="false" />
    <inkscape:path-effect
       effect="mirror_symmetry"
       start_point="865.16018,106.22175"
       end_point="865.16018,120.70148"
       center_point="865.16018,113.46161"
       id="path-effect863"
       is_visible="true"
       lpeversion="1"
       mode="vertical"
       discard_orig_path="false"
       fuse_paths="false"
       oposite_fuse="false"
       split_items="false" />
    <inkscape:path-effect
       effect="mirror_symmetry"
       start_point="864.90177,106.48631"
       end_point="864.90177,157.22501"
       center_point="864.90177,131.85566"
       id="path-effect859"
       is_visible="true"
       lpeversion="1"
       mode="vertical"
       discard_orig_path="false"
       fuse_paths="true"
       oposite_fuse="false"
       split_items="false"
       split_open="false" />
    <inkscape:path-effect
       effect="mirror_symmetry"
       start_point="864.88685,123.71696"
       end_point="864.88685,160.19062"
       center_point="864.88685,141.95379"
       id="path-effect855"
       is_visible="true"
       lpeversion="1"
       mode="vertical"
       discard_orig_path="false"
       fuse_paths="true"
       oposite_fuse="false"
       split_items="false" />
    <inkscape:path-effect
       effect="mirror_symmetry"
       start_point="864.96909,129.13172"
       end_point="864.96909,138.32154"
       center_point="864.96909,133.72663"
       id="path-effect851"
       is_visible="true"
       lpeversion="1"
       mode="vertical"
       discard_orig_path="false"
       fuse_paths="true"
       oposite_fuse="false"
       split_items="false" />
    <inkscape:path-effect
       effect="mirror_symmetry"
       start_point="865.16018,106.20696"
       end_point="865.16018,151.04381"
       center_point="865.16018,128.62538"
       id="path-effect847"
       is_visible="true"
       lpeversion="1"
       mode="vertical"
       discard_orig_path="false"
       fuse_paths="true"
       oposite_fuse="false"
       split_items="false"
       split_open="false" />
  </defs>
  <sodipodi:namedview
     pagecolor="#ffffff"
     bordercolor="#666666"
     borderopacity="1"
     objecttolerance="10"
     gridtolerance="10"
     guidetolerance="10"
     inkscape:pageopacity="0"
     inkscape:pageshadow="2"
     inkscape:window-width="1920"
     inkscape:window-height="1027"
     id="namedview835"
     showgrid="false"
     inkscape:zoom="1.054473"
     inkscape:cx="162.16632"
     inkscape:cy="302.99496"
     inkscape:window-x="-8"
     inkscape:window-y="-8"
     inkscape:window-maximized="1"
     inkscape:current-layer="layer1"
     inkscape:document-rotation="0"
     inkscape:pagecheckerboard="1" />
  <g
     inkscape:groupmode="layer"
     id="layer1"
     inkscape:label="Sticker">
    <path
       style="opacity:1;fill:#ffe1cc;fill-opacity:1;stroke:none;stroke-width:1px;stroke-linecap:butt;stroke-linejoin:miter;stroke-opacity:1"
       d="m 836.40572,117.11959 c -2.26914,-6.32142 -1.86925,-14.02931 5.05526,-14.41241 1.86079,-0.10295 4.03076,0.89257 6.99432,1.82828 z m 57.50894,0 c 2.26914,-6.32142 1.86925,-14.02931 -5.05526,-14.41241 -1.86079,-0.10295 -4.03076,0.89257 -6.99432,1.82828 z"
       id="path861"
       sodipodi:nodetypes="cscc"
       inkscape:path-effect="#path-effect863"
       inkscape:original-d="m 836.40572,117.11959 c -2.26914,-6.32142 -1.86925,-14.02931 5.05526,-14.41241 1.86079,-0.10295 4.03076,0.89257 6.99432,1.82828 z"
       transform="matrix(7.4003737,0,0,7.4003737,-6146.5087,-720.99786)" />
    <path
       style="opacity:1;fill:#302426;fill-opacity:1;stroke:none;stroke-width:1px;stroke-linecap:butt;stroke-linejoin:miter;stroke-opacity:1"
       d="m 840.80447,148.42597 -7.12723,-12.97995 3.32,-19.09379 c -2.75785,-6.68066 -0.74178,-12.34259 3.41412,-12.8997 1.92433,-0.25796 3.85842,0.5128 6.53345,1.88098 l 1.51049,-0.79805 16.70489,-0.53236 16.70489,0.53236 1.51049,0.79805 c 2.67503,-1.36818 4.60912,-2.13894 6.53345,-1.88098 4.1559,0.55711 6.17197,6.21904 3.41412,12.8997 l 3.32,19.09379 -7.12723,12.97995 c -8.31662,3.49616 -15.29605,7.6531 -24.35572,8.74609 -9.05967,-1.09299 -16.03911,-5.24993 -24.35572,-8.74609 z"
       id="path857"
       inkscape:path-effect="#path-effect859"
       inkscape:original-d="m 840.80447,148.42597 -7.12723,-12.97995 3.32,-19.09379 c -2.75785,-6.68066 -0.74178,-12.34259 3.41412,-12.8997 1.92433,-0.25796 3.85842,0.5128 6.53345,1.88098 l 1.51049,-0.79805 17.22015,-0.54878 -0.33539,53.20664 c -9.14736,-1.05928 -16.16402,-5.24809 -24.53559,-8.76735 z"
       sodipodi:nodetypes="cccsccccc"
       transform="matrix(7.4003737,0,0,7.4003737,-6146.5087,-720.99786)" />
    <path
       style="opacity:1;fill:#ffe1cc;fill-opacity:1;stroke:none;stroke-width:1px;stroke-linecap:butt;stroke-linejoin:miter;stroke-opacity:1"
       d="m 865.16019,115.4431 -2.35386,-0.1008 c -20.65283,-11.74006 -29.0007,3.24646 -20.31446,13.58451 -2.57725,-0.4447 -7.05425,1.23611 -7.61845,3.75054 -1.13766,5.07016 4.79145,9.70909 7.53467,12.66306 11.04179,11.05968 1.34724,5.59104 -3.65448,2.0726 -2.88051,-3.13468 -5.12036,-5.90005 -6.03192,-9.49906 -2.25904,-8.48778 2.23699,-21.77461 8.62221,-28.1323 6.35078,-6.32339 17.91887,-3.47781 23.81629,-3.38357 5.89741,-0.0942 17.46551,-2.93982 23.81629,3.38357 6.38522,6.35769 10.88125,19.64452 8.62221,28.1323 -0.91156,3.59901 -3.15141,6.36438 -6.03192,9.49906 -5.00172,3.51844 -14.69627,8.98708 -3.65448,-2.0726 2.74322,-2.95397 8.67233,-7.5929 7.53467,-12.66306 -0.5642,-2.51443 -5.0412,-4.19524 -7.61845,-3.75054 8.68624,-10.33805 0.33837,-25.32457 -20.31446,-13.58451 z"
       id="path845"
       sodipodi:nodetypes="cccscccscc"
       inkscape:path-effect="#path-effect847"
       inkscape:original-d="m 865.37999,115.45251 -2.57366,-0.11021 c -20.65283,-11.74006 -29.0007,3.24646 -20.31446,13.58451 -2.57725,-0.4447 -7.05425,1.23611 -7.61845,3.75054 -1.13766,5.07016 4.79145,9.70909 7.53467,12.66306 11.04179,11.05968 1.34724,5.59104 -3.65448,2.0726 -2.88051,-3.13468 -5.12036,-5.90005 -6.03192,-9.49906 -2.25904,-8.48778 2.23699,-21.77461 8.62221,-28.1323 6.43065,-6.40292 18.21068,-3.40478 24.03609,-3.38134 z"
       transform="matrix(7.4003737,0,0,7.4003737,-6146.5087,-720.99786)" />
    <path
       style="opacity:1;fill:#533e40;fill-opacity:1;stroke:none;stroke-width:1px;stroke-linecap:butt;stroke-linejoin:miter;stroke-opacity:1"
       d="m 865.16019,121.06218 c -16.9022,0.62042 -21.42824,20.51069 -15.82974,28.06079 3.52204,5.47047 10.39176,7.56801 15.82974,8.01485 5.43798,-0.44684 12.3077,-2.54438 15.82974,-8.01485 5.5985,-7.5501 1.07246,-27.44037 -15.82974,-28.06079 z"
       id="path853"
       sodipodi:nodetypes="cccc"
       inkscape:path-effect="#path-effect855"
       inkscape:original-d="m 865.65235,121.04964 c -17.30618,0.24841 -21.97436,20.45046 -16.3219,28.07333 3.74286,5.81345 11.26634,7.81777 16.83451,8.07986 z"
       transform="matrix(7.4003737,0,0,7.4003737,-6146.5087,-720.99786)" />
    <path
       style="opacity:1;fill:#181818;fill-opacity:1;stroke:none;stroke-width:1px;stroke-linecap:butt;stroke-linejoin:miter;stroke-opacity:1"
       d="m 865.16019,129.1369 c -12.43568,0.81043 -10.10844,7.07049 -3.13103,10.0462 1.40957,0.60116 1.85636,1.46202 3.13103,1.58454 1.27467,-0.12252 1.72145,-0.98338 3.13103,-1.58454 6.97741,-2.97571 9.30465,-9.23577 -3.13103,-10.0462 z"
       id="path849"
       sodipodi:nodetypes="cscc"
       inkscape:path-effect="#path-effect851"
       inkscape:original-d="m 865.24101,129.13172 c -12.52654,0.78854 -10.20434,7.06924 -3.21185,10.05138 1.43896,0.61369 1.87457,1.49803 3.21185,1.59123 z"
       transform="matrix(7.4003737,0,0,9.2981559,-6146.5087,-966.06174)" />
    <path
       style="opacity:1;fill:#00a4d2;fill-opacity:1;stroke:none;stroke-width:1px;stroke-linecap:butt;stroke-linejoin:miter;stroke-opacity:1"
       d="m 865.16019,152.3122 c -4.86567,2.99246 -3.34803,3.47561 0,3.4994 3.34803,-0.0238 4.86566,-0.50694 0,-3.4994 z"
       id="path865"
       sodipodi:nodetypes="ccc"
       inkscape:path-effect="#path-effect867"
       inkscape:original-d="m 865.17043,152.3059 c -4.883,3.00114 -3.35752,3.48288 0,3.50577 z"
       transform="matrix(7.4003737,0,0,7.4003737,-6146.5087,-720.99786)" />
    <path
       style="opacity:1;fill:none;fill-opacity:1;stroke:#00a4d2;stroke-width:3.08092549;stroke-linecap:round;stroke-linejoin:miter;stroke-miterlimit:4;stroke-dasharray:none;stroke-opacity:1"
       d="m 840.17194,132.06325 3.11749,0.68744 m 46.85901,-0.68744 -3.11749,0.68744"
       id="path869"
       sodipodi:nodetypes="cc"
       inkscape:path-effect="#path-effect871"
       inkscape:original-d="m 840.17194,132.06325 3.11749,0.68744"
       transform="matrix(7.4003737,0,0,7.4003737,-6146.5087,-720.99786)" />
  </g>
  <g
     inkscape:groupmode="layer"
     inkscape:label="Image"
     id="g841"
     style="display:none;opacity:1"
     sodipodi:insensitive="true">
    <image
       width="3554.3691"
       height="3224.8496"
       preserveAspectRatio="none"
       xlink:href="../Fursona/refV4/0001.png"
       id="image950"
       x="-1521.1846"
       y="33.296875" />
  </g>
</svg>
